<svg xmlns="http://www.w3.org/2000/svg" xmlns:xlink="http://www.w3.org/1999/xlink" width="720" zoomAndPan="magnify" viewBox="0 0 540 270.749989" height="361" preserveAspectRatio="xMidYMid meet" version="1.2"><defs><clipPath id="ba1272a1fd"><path d="M 304 196.460938 L 372.160156 196.460938 L 372.160156 210.835938 L 304 210.835938 Z M 304 196.460938 "/></clipPath><clipPath id="fda1482153"><path d="M 304 171.945312 L 372.160156 171.945312 L 372.160156 188.996094 L 304 188.996094 Z M 304 171.945312 "/></clipPath><clipPath id="36cd55dd45"><path d="M 304 137.738281 L 371.929688 137.738281 L 371.929688 162.625 L 304 162.625 Z M 304 137.738281 "/></clipPath></defs><g id="1315bbd47d"><g clip-rule="nonzero" clip-path="url(#ba1272a1fd)"><path style=" stroke:none;fill-rule:nonzero;fill:#fed302;fill-opacity:1;" d="M 304 196.460938 L 372.171875 196.460938 L 372.171875 210.835938 L 304 210.835938 Z M 304 196.460938 "/></g><g clip-rule="nonzero" clip-path="url(#fda1482153)"><path style=" stroke:none;fill-rule:nonzero;fill:#fed302;fill-opacity:1;" d="M 304 171.945312 L 372.148438 171.945312 L 372.148438 188.996094 L 304 188.996094 Z M 304 171.945312 "/></g><g clip-rule="nonzero" clip-path="url(#36cd55dd45)"><path style=" stroke:none;fill-rule:nonzero;fill:#fed302;fill-opacity:1;" d="M 371.859375 171.671875 C 371.859375 190.410156 356.667969 205.601562 337.929688 205.601562 C 319.191406 205.601562 304 190.410156 304 171.671875 C 304 152.929688 319.191406 137.738281 337.929688 137.738281 C 356.667969 137.738281 371.859375 152.929688 371.859375 171.671875 Z M 371.859375 171.671875 "/></g><g style="fill:#ffffff;fill-opacity:1;"><g transform="translate(39.798199, 123.762879)"><path style="stroke:none" d="M 0.3125 0 L 23.875 -63.0625 L 41.203125 -63.0625 L 64.984375 0 L 48.140625 0 L 43.6875 -12.796875 L 21.078125 -12.796875 L 16.703125 0 Z M 24.453125 -25.265625 L 40.21875 -25.265625 L 32.296875 -47.0625 Z M 24.453125 -25.265625 "/></g></g><g style="fill:#ffffff;fill-opacity:1;"><g transform="translate(105.098811, 123.762879)"><path style="stroke:none" d="M 7.4375 0 L 7.4375 -63.0625 L 22.203125 -63.0625 L 48.140625 -24.40625 L 48.140625 -63.0625 L 62.65625 -63.0625 L 62.65625 0 L 47.875 0 L 21.890625 -39.1875 L 21.890625 0 Z M 7.4375 0 "/></g></g><g style="fill:#ffffff;fill-opacity:1;"><g transform="translate(175.17311, 123.762879)"><path style="stroke:none" d="M 18.515625 0 L 18.515625 -49.40625 L 1.71875 -49.40625 L 1.71875 -63.0625 L 50.359375 -63.0625 L 50.359375 -49.40625 L 33.546875 -49.40625 L 33.546875 0 Z M 18.515625 0 "/></g></g><g style="fill:#ffffff;fill-opacity:1;"><g transform="translate(227.233456, 123.762879)"><path style="stroke:none" d="M 7.4375 0 L 7.4375 -63.0625 L 22.390625 -63.0625 L 22.390625 -39.671875 L 47.25 -39.671875 L 47.25 -63.0625 L 62.203125 -63.0625 L 62.203125 0 L 47.25 0 L 47.25 -26.03125 L 22.390625 -26.03125 L 22.390625 0 Z M 7.4375 0 "/></g></g><g style="fill:#ffffff;fill-opacity:1;"><g transform="translate(296.857407, 123.762879)"><path style="stroke:none" d="M 37.15625 1.34375 C 32.320312 1.34375 27.851562 0.515625 23.75 -1.140625 C 19.65625 -2.804688 16.09375 -5.125 13.0625 -8.09375 C 10.03125 -11.070312 7.679688 -14.554688 6.015625 -18.546875 C 4.347656 -22.546875 3.515625 -26.875 3.515625 -31.53125 C 3.515625 -36.207031 4.347656 -40.539062 6.015625 -44.53125 C 7.679688 -48.53125 10.03125 -52.015625 13.0625 -54.984375 C 16.09375 -57.960938 19.65625 -60.273438 23.75 -61.921875 C 27.851562 -63.578125 32.320312 -64.40625 37.15625 -64.40625 C 42.019531 -64.40625 46.492188 -63.5625 50.578125 -61.875 C 54.660156 -60.195312 58.21875 -57.859375 61.25 -54.859375 C 64.28125 -51.859375 66.628906 -48.367188 68.296875 -44.390625 C 69.960938 -40.410156 70.796875 -36.125 70.796875 -31.53125 C 70.796875 -26.875 69.960938 -22.546875 68.296875 -18.546875 C 66.628906 -14.554688 64.28125 -11.070312 61.25 -8.09375 C 58.21875 -5.125 54.660156 -2.804688 50.578125 -1.140625 C 46.492188 0.515625 42.019531 1.34375 37.15625 1.34375 Z M 37.15625 -12.703125 C 39.769531 -12.703125 42.164062 -13.132812 44.34375 -14 C 46.519531 -14.875 48.414062 -16.132812 50.03125 -17.78125 C 51.65625 -19.4375 52.910156 -21.425781 53.796875 -23.75 C 54.679688 -26.082031 55.125 -28.675781 55.125 -31.53125 C 55.125 -35.375 54.347656 -38.707031 52.796875 -41.53125 C 51.253906 -44.351562 49.125 -46.535156 46.40625 -48.078125 C 43.695312 -49.628906 40.613281 -50.40625 37.15625 -50.40625 C 34.570312 -50.40625 32.179688 -49.957031 29.984375 -49.0625 C 27.796875 -48.175781 25.898438 -46.90625 24.296875 -45.25 C 22.691406 -43.601562 21.4375 -41.625 20.53125 -39.3125 C 19.632812 -37 19.1875 -34.40625 19.1875 -31.53125 C 19.1875 -27.71875 19.96875 -24.398438 21.53125 -21.578125 C 23.09375 -18.753906 25.226562 -16.566406 27.9375 -15.015625 C 30.65625 -13.472656 33.726562 -12.703125 37.15625 -12.703125 Z M 37.15625 -12.703125 "/></g></g><g style="fill:#ffffff;fill-opacity:1;"><g transform="translate(371.210025, 123.762879)"><path style="stroke:none" d="M 7.4375 0 L 7.4375 -63.0625 L 22.203125 -63.0625 L 48.140625 -24.40625 L 48.140625 -63.0625 L 62.65625 -63.0625 L 62.65625 0 L 47.875 0 L 21.890625 -39.1875 L 21.890625 0 Z M 7.4375 0 "/></g></g><g style="fill:#ffffff;fill-opacity:1;"><g transform="translate(441.284304, 123.762879)"><path style="stroke:none" d="M 21.703125 0 L 21.703125 -26.34375 L -0.40625 -63.0625 L 16.390625 -63.0625 L 29.5 -40.671875 L 42.46875 -63.0625 L 58.828125 -63.0625 L 36.703125 -26.21875 L 36.703125 0 Z M 21.703125 0 "/></g></g><g style="fill:#ffffff;fill-opacity:1;"><g transform="translate(39.776453, 208.765979)"><path style="stroke:none" d="M 7.4375 0 L 7.4375 -63.0625 L 31.84375 -63.0625 C 38.269531 -63.0625 43.40625 -61.71875 47.25 -59.03125 C 51.09375 -56.34375 53.015625 -52.351562 53.015625 -47.0625 C 53.015625 -45.144531 52.625 -43.375 51.84375 -41.75 C 51.0625 -40.125 50 -38.6875 48.65625 -37.4375 C 47.320312 -36.195312 45.832031 -35.203125 44.1875 -34.453125 C 47.570312 -33.253906 50.304688 -31.257812 52.390625 -28.46875 C 54.484375 -25.675781 55.53125 -22.359375 55.53125 -18.515625 C 55.53125 -14.753906 54.59375 -11.492188 52.71875 -8.734375 C 50.84375 -5.972656 48.175781 -3.828125 44.71875 -2.296875 C 41.269531 -0.765625 37.171875 0 32.421875 0 Z M 22.390625 -11.03125 L 30.265625 -11.03125 C 33.503906 -11.03125 35.9375 -11.691406 37.5625 -13.015625 C 39.1875 -14.335938 40 -16.320312 40 -18.96875 C 40 -21.488281 39.222656 -23.445312 37.671875 -24.84375 C 36.128906 -26.238281 33.828125 -26.9375 30.765625 -26.9375 L 22.390625 -26.9375 Z M 22.390625 -37.203125 L 29.8125 -37.203125 C 31.613281 -37.203125 33.164062 -37.5 34.46875 -38.09375 C 35.78125 -38.695312 36.785156 -39.566406 37.484375 -40.703125 C 38.191406 -41.847656 38.546875 -43.21875 38.546875 -44.8125 C 38.546875 -47.125 37.773438 -48.910156 36.234375 -50.171875 C 34.691406 -51.429688 32.476562 -52.0625 29.59375 -52.0625 L 22.390625 -52.0625 Z M 22.390625 -37.203125 "/></g></g><g style="fill:#ffffff;fill-opacity:1;"><g transform="translate(99.050604, 208.765979)"><path style="stroke:none" d="M 34.09375 1.34375 C 28.175781 1.34375 23.210938 0.175781 19.203125 -2.15625 C 15.203125 -4.5 12.179688 -7.71875 10.140625 -11.8125 C 8.097656 -15.914062 7.078125 -20.625 7.078125 -25.9375 L 7.078125 -63.0625 L 22.03125 -63.0625 L 22.03125 -25.40625 C 22.03125 -21.113281 23.09375 -17.921875 25.21875 -15.828125 C 27.351562 -13.742188 30.3125 -12.703125 34.09375 -12.703125 C 37.84375 -12.703125 40.773438 -13.742188 42.890625 -15.828125 C 45.015625 -17.921875 46.078125 -21.113281 46.078125 -25.40625 L 46.078125 -63.0625 L 61.078125 -63.0625 L 61.078125 -25.9375 C 61.078125 -20.65625 60.054688 -15.960938 58.015625 -11.859375 C 55.972656 -7.765625 52.945312 -4.539062 48.9375 -2.1875 C 44.925781 0.164062 39.976562 1.34375 34.09375 1.34375 Z M 34.09375 1.34375 "/></g></g><g style="fill:#ffffff;fill-opacity:1;"><g transform="translate(167.197865, 208.765979)"><path style="stroke:none" d="M 7.4375 0 L 7.4375 -63.0625 L 33.015625 -63.0625 C 37.703125 -63.0625 41.789062 -62.300781 45.28125 -60.78125 C 48.78125 -59.257812 51.484375 -57.054688 53.390625 -54.171875 C 55.296875 -51.296875 56.25 -47.847656 56.25 -43.828125 C 56.25 -40.734375 55.660156 -38.003906 54.484375 -35.640625 C 53.316406 -33.285156 51.710938 -31.328125 49.671875 -29.765625 C 47.628906 -28.203125 45.316406 -27.035156 42.734375 -26.265625 L 59.71875 0 L 41.96875 0 L 27.921875 -23.1875 L 22.390625 -23.1875 L 22.390625 0 Z M 22.390625 -35.171875 L 31.21875 -35.171875 C 34.332031 -35.171875 36.769531 -35.785156 38.53125 -37.015625 C 40.289062 -38.253906 41.171875 -40.207031 41.171875 -42.875 C 41.171875 -45.582031 40.335938 -47.570312 38.671875 -48.84375 C 37.003906 -50.125 34.625 -50.765625 31.53125 -50.765625 L 22.390625 -50.765625 Z M 22.390625 -35.171875 "/></g></g><g style="fill:#ffffff;fill-opacity:1;"><g transform="translate(228.183579, 208.765979)"><path style="stroke:none" d="M 39.046875 1.34375 C 34.179688 1.34375 29.601562 0.59375 25.3125 -0.90625 C 21.019531 -2.40625 17.242188 -4.570312 13.984375 -7.40625 C 10.722656 -10.25 8.160156 -13.695312 6.296875 -17.75 C 4.441406 -21.800781 3.515625 -26.378906 3.515625 -31.484375 C 3.515625 -36.554688 4.40625 -41.109375 6.1875 -45.140625 C 7.976562 -49.179688 10.460938 -52.644531 13.640625 -55.53125 C 16.828125 -58.414062 20.519531 -60.613281 24.71875 -62.125 C 28.925781 -63.644531 33.445312 -64.40625 38.28125 -64.40625 C 40.5 -64.40625 42.820312 -64.234375 45.25 -63.890625 C 47.6875 -63.546875 50.164062 -62.9375 52.6875 -62.0625 C 55.21875 -61.195312 57.695312 -59.96875 60.125 -58.375 L 53.90625 -46.796875 C 51.75 -48.203125 49.453125 -49.242188 47.015625 -49.921875 C 44.585938 -50.597656 42.007812 -50.9375 39.28125 -50.9375 C 36.125 -50.9375 33.285156 -50.484375 30.765625 -49.578125 C 28.242188 -48.679688 26.101562 -47.382812 24.34375 -45.6875 C 22.582031 -43.988281 21.238281 -41.9375 20.3125 -39.53125 C 19.382812 -37.132812 18.921875 -34.421875 18.921875 -31.390625 C 18.921875 -27.035156 19.847656 -23.394531 21.703125 -20.46875 C 23.566406 -17.539062 26.085938 -15.332031 29.265625 -13.84375 C 32.453125 -12.363281 36.015625 -11.625 39.953125 -11.625 C 41.515625 -11.625 43 -11.757812 44.40625 -12.03125 C 45.820312 -12.300781 47.066406 -12.613281 48.140625 -12.96875 L 48.140625 -24.140625 L 35.265625 -24.140625 L 35.265625 -36.03125 L 61.25 -36.03125 L 61.25 -3.875 C 59.363281 -2.789062 57.117188 -1.859375 54.515625 -1.078125 C 51.921875 -0.296875 49.265625 0.300781 46.546875 0.71875 C 43.828125 1.132812 41.328125 1.34375 39.046875 1.34375 Z M 39.046875 1.34375 "/></g></g><g style="fill:#ffffff;fill-opacity:1;"><g transform="translate(380.403213, 208.765979)"><path style="stroke:none" d="M 7.4375 0 L 7.4375 -63.0625 L 33.015625 -63.0625 C 37.703125 -63.0625 41.789062 -62.300781 45.28125 -60.78125 C 48.78125 -59.257812 51.484375 -57.054688 53.390625 -54.171875 C 55.296875 -51.296875 56.25 -47.847656 56.25 -43.828125 C 56.25 -40.734375 55.660156 -38.003906 54.484375 -35.640625 C 53.316406 -33.285156 51.710938 -31.328125 49.671875 -29.765625 C 47.628906 -28.203125 45.316406 -27.035156 42.734375 -26.265625 L 59.71875 0 L 41.96875 0 L 27.921875 -23.1875 L 22.390625 -23.1875 L 22.390625 0 Z M 22.390625 -35.171875 L 31.21875 -35.171875 C 34.332031 -35.171875 36.769531 -35.785156 38.53125 -37.015625 C 40.289062 -38.253906 41.171875 -40.207031 41.171875 -42.875 C 41.171875 -45.582031 40.335938 -47.570312 38.671875 -48.84375 C 37.003906 -50.125 34.625 -50.765625 31.53125 -50.765625 L 22.390625 -50.765625 Z M 22.390625 -35.171875 "/></g></g></g></svg>