<svg xmlns="http://www.w3.org/2000/svg" xmlns:xlink="http://www.w3.org/1999/xlink" width="409" zoomAndPan="magnify" viewBox="0 0 306.75 329.249999" height="439" preserveAspectRatio="xMidYMid meet" version="1.2"><defs><clipPath id="99faccba11"><path d="M 0.222656 263.398438 L 305.605469 263.398438 L 305.605469 327.804688 L 0.222656 327.804688 Z M 0.222656 263.398438 "/></clipPath><clipPath id="52342bbe30"><path d="M 0.222656 153.554688 L 305.605469 153.554688 L 305.605469 229.960938 L 0.222656 229.960938 Z M 0.222656 153.554688 "/></clipPath><clipPath id="26c996891f"><path d="M 0.222656 0.3125 L 305.527344 0.3125 L 305.527344 111.496094 L 0.222656 111.496094 Z M 0.222656 0.3125 "/></clipPath></defs><g id="11250b95a4"><g clip-rule="nonzero" clip-path="url(#99faccba11)"><path style=" stroke:none;fill-rule:nonzero;fill:#fed302;fill-opacity:1;" d="M 0.222656 263.398438 L 305.660156 263.398438 L 305.660156 327.804688 L 0.222656 327.804688 Z M 0.222656 263.398438 "/></g><g clip-rule="nonzero" clip-path="url(#52342bbe30)"><path style=" stroke:none;fill-rule:nonzero;fill:#fed302;fill-opacity:1;" d="M 0.222656 153.554688 L 305.554688 153.554688 L 305.554688 229.960938 L 0.222656 229.960938 Z M 0.222656 153.554688 "/></g><g clip-rule="nonzero" clip-path="url(#26c996891f)"><path style=" stroke:none;fill-rule:nonzero;fill:#fed302;fill-opacity:1;" d="M 305.21875 152.808594 C 305.21875 237.027344 236.941406 305.304688 152.71875 305.304688 C 68.5 305.304688 0.222656 237.027344 0.222656 152.808594 C 0.222656 68.589844 68.5 0.3125 152.71875 0.3125 C 236.941406 0.3125 305.21875 68.589844 305.21875 152.808594 Z M 305.21875 152.808594 "/></g></g></svg>